<?xml version="1.0" encoding="iso-8859-1"?>
<!-- Generator: Adobe Illustrator 26.3.1, SVG Export Plug-In . SVG Version: 6.00 Build 0)  -->
<svg version="1.1" baseProfile="basic" id="Layer_1"
	 xmlns="http://www.w3.org/2000/svg" xmlns:xlink="http://www.w3.org/1999/xlink" x="0px" y="0px" viewBox="0 0 48 48"
	 xml:space="preserve">
<path style="fill:#D67C05;" d="M28.5,6h-9C18.672,6,18,6.672,18,7.5V9h12V7.5C30,6.672,29.328,6,28.5,6z"/>
<path style="fill:#D67C05;" d="M42,41H6c-1.1,0-2-0.9-2-2V13c0-2.2,1.8-4,4-4h32c2.2,0,4,1.8,4,4v26C44,40.1,43.1,41,42,41z"/>
<path style="fill:#FF8F00;" d="M42.297,25.255L24,28L5.703,25.255C4.724,25.109,4,24.268,4,23.278V13c0-2.2,1.8-4,4-4h32
	c2.2,0,4,1.8,4,4v10.278C44,24.268,43.276,25.109,42.297,25.255z"/>
<path style="fill:#FFF3E0;" d="M20,20c0-2.209,1.791-4,4-4s4,1.791,4,4s-1.791,4-4,4S20,22.209,20,20z M24,26c-3.866,0-7,3.134-7,7
	v0.6c0,0.773,0.627,1.4,1.4,1.4h11.2c0.773,0,1.4-0.627,1.4-1.4V33C31,29.134,27.866,26,24,26z"/>
</svg>